<?xml version="1.0" encoding="UTF-8"?>
<svg id="Capa_1" xmlns="http://www.w3.org/2000/svg" version="1.1" viewBox="0 0 128 128">
  <!-- Generator: Adobe Illustrator 29.2.1, SVG Export Plug-In . SVG Version: 2.1.0 Build 116)  -->
  <defs>
    <style>
      .st0 {
        fill: #fff;
      }

      .st1 {
        fill: none;
      }
    </style>
  </defs>
  <rect width="128" height="128"/>
  <g>
    <path class="st0" d="M22.86,89.76c-.13.21-.27.37-.41.47-.14.11-.33.16-.56.16-.2,0-.42-.06-.65-.19-.23-.13-.5-.27-.79-.43-.29-.16-.63-.3-1.01-.43s-.81-.19-1.29-.19c-.83,0-1.45.18-1.86.53s-.61.84-.61,1.44c0,.39.12.71.37.96.25.25.57.47.97.66.4.18.86.35,1.37.51.51.15,1.04.32,1.57.51.53.19,1.06.41,1.57.66.51.25.97.58,1.37.97.4.39.72.87.97,1.44.25.57.37,1.25.37,2.05,0,.89-.15,1.71-.46,2.49-.31.77-.75,1.45-1.34,2.02-.58.57-1.3,1.03-2.16,1.35-.86.33-1.83.49-2.91.49-.6,0-1.2-.06-1.82-.18-.62-.12-1.22-.3-1.8-.52-.58-.22-1.12-.49-1.63-.8-.51-.31-.95-.65-1.33-1.03l1.32-2.08c.1-.16.23-.28.41-.38.18-.1.36-.14.57-.14.26,0,.53.08.8.25.27.17.57.35.91.55.34.2.73.39,1.16.55.44.17.96.25,1.55.25.81,0,1.43-.18,1.88-.53.45-.36.67-.92.67-1.69,0-.45-.12-.81-.37-1.09-.25-.28-.57-.51-.97-.7-.4-.18-.85-.35-1.36-.49-.51-.14-1.03-.3-1.57-.47-.54-.17-1.06-.38-1.57-.63-.51-.25-.96-.58-1.36-.99-.4-.41-.72-.92-.97-1.53-.25-.61-.37-1.36-.37-2.26,0-.72.14-1.42.43-2.1.29-.68.71-1.29,1.28-1.83.56-.53,1.25-.96,2.07-1.28.82-.32,1.75-.48,2.8-.48.59,0,1.16.05,1.72.14.56.09,1.09.23,1.58.41.5.18.97.39,1.4.64s.82.53,1.16.85l-1.11,2.07Z"/>
    <path class="st0" d="M45.36,95.44c0,.82-.09,1.62-.26,2.37-.17.76-.42,1.47-.74,2.14-.32.67-.71,1.28-1.18,1.85-.47.57-1,1.07-1.6,1.51l4.85,5.3h-3.66c-.53,0-1-.06-1.43-.19-.43-.13-.81-.38-1.14-.77l-2.38-2.67c-.39.08-.78.14-1.18.18-.4.04-.81.07-1.23.07-1.49,0-2.85-.25-4.08-.75s-2.28-1.19-3.15-2.07c-.87-.88-1.55-1.92-2.03-3.11-.48-1.19-.72-2.48-.72-3.87s.24-2.67.72-3.87c.48-1.19,1.15-2.23,2.03-3.1.87-.88,1.92-1.57,3.15-2.07s2.59-.75,4.08-.75,2.85.25,4.07.76c1.22.5,2.27,1.2,3.14,2.07.87.88,1.54,1.91,2.02,3.1.48,1.19.72,2.48.72,3.85ZM40.81,95.44c0-.95-.12-1.8-.37-2.56-.25-.76-.6-1.4-1.06-1.93-.46-.53-1.02-.93-1.69-1.21-.67-.28-1.43-.42-2.28-.42s-1.62.14-2.3.42c-.67.28-1.24.68-1.7,1.21-.46.53-.81,1.17-1.06,1.93-.25.76-.37,1.61-.37,2.56s.12,1.81.37,2.57c.25.76.6,1.4,1.06,1.93.46.53,1.03.93,1.7,1.2.67.28,1.44.41,2.3.41s1.61-.14,2.28-.41c.67-.28,1.23-.68,1.69-1.2.46-.53.81-1.17,1.06-1.93s.37-1.62.37-2.57Z"/>
    <path class="st0" d="M55.46,101.52c.6,0,1.13-.1,1.6-.3s.87-.48,1.19-.85c.32-.37.57-.82.74-1.35.17-.53.26-1.13.26-1.81v-11.35h4.45v11.35c0,1.18-.19,2.25-.57,3.24-.38.98-.93,1.83-1.64,2.54-.71.71-1.57,1.26-2.59,1.66-1.02.39-2.16.59-3.43.59s-2.43-.2-3.45-.59c-1.02-.39-1.88-.95-2.59-1.66-.71-.71-1.25-1.56-1.63-2.54-.38-.98-.57-2.06-.57-3.24v-11.35h4.45v11.34c0,.68.09,1.28.26,1.81.17.53.42.98.74,1.35s.72.66,1.19.86c.47.2,1,.3,1.6.3Z"/>
    <path class="st0" d="M78.93,85.87v3.42h-7.87v4.47h6.02v3.29h-6.02v4.56h7.87v3.42h-12.34v-19.17h12.34Z"/>
    <path class="st0" d="M99.29,105.03h-3.45c-.39,0-.7-.09-.95-.27-.25-.18-.42-.41-.52-.69l-1.13-3.34h-7.29l-1.13,3.34c-.09.25-.26.47-.51.66-.25.2-.57.3-.93.3h-3.47l7.42-19.17h4.55l7.42,19.17ZM86.98,97.7h5.24l-1.76-5.25c-.11-.33-.25-.73-.4-1.18-.15-.45-.3-.94-.45-1.47-.14.54-.29,1.03-.43,1.49-.15.46-.29.85-.42,1.18l-1.76,5.22Z"/>
    <path class="st0" d="M105.29,93.63h.71c.66,0,1.13-.21,1.42-.62l4.31-6.26c.24-.34.51-.57.81-.7.3-.12.67-.18,1.11-.18h3.87l-5.68,7.75c-.2.28-.41.51-.63.7s-.44.34-.67.46c.33.12.64.29.91.51.28.21.53.5.76.86l5.79,8.89h-3.97c-.25,0-.47-.02-.65-.05-.18-.03-.34-.09-.47-.16-.13-.07-.25-.16-.34-.26-.1-.1-.19-.22-.28-.35l-4.34-6.67c-.16-.25-.36-.42-.6-.52-.24-.1-.57-.15-.98-.15h-1.08v8.16h-4.45v-19.17h4.45v7.76Z"/>
  </g>
  <g>
    <g>
      <path class="st0" d="M98.09,27.39c-.03-.14-.06-.29-.11-.43-.6-2.11-2.06-3.34-2.59-3.79-3.21-2.68-7.35-1.96-8.17-1.79-.54.11-1.05.26-1.53.44l-.2-.55c1.2-.45,2.33-.78,3.35-1.04.29-.03.58-.04.87-.04,4.25,0,7.77,3.13,8.38,7.21Z"/>
      <path class="st0" d="M96.05,35.4s-.04.09-.06.13c-1.57,3.31-2.67,5.56-5.18,6.98-1.83,1.03-3.66,1.19-4.78,1.2,1.49,1.21,3.93,3.52,5.78,7.18,1.88,3.71,2.3,7.11,2.38,9.1-1.64-4.01-6.41-6.91-12.05-6.91-.69,0-1.36.04-2.02.13-.63.08-1.25.2-1.85.35l-.02-.08c-1.78-1.44-5.17-4.58-7.37-9.77-2.01-4.71-2.1-8.91-1.99-11.16-.3-.29-1.43-1.29-3.19-1.4-2.13-.13-3.54,1.17-3.79,1.4-.39,3.35-1.52,8.9-5.18,14.55-1.75,2.7-3.66,4.78-5.33,6.33-.52-.11-1.05-.2-1.6-.26h0c-.57-.06-1.15-.09-1.74-.09-5.62,0-10.39,2.89-12.04,6.88h-.02c.06-2.02.43-5.67,2.39-9.66,1.85-3.76,4.29-6.14,5.78-7.39-1.13,0-2.96-.17-4.78-1.2-2.51-1.41-3.61-3.66-5.18-6.98-.32-.69-.68-1.49-1.04-2.42-.07-.19-.15-.39-.22-.59,0,0,0,0,0,0-.28-.76-.56-1.59-.82-2.5-.07-.44-.11-.9-.11-1.36,0-4.68,3.79-8.47,8.47-8.47.4,0,.79.03,1.18.08l.36-.02c1.23.32,2.74.84,4.34,1.73,2.88,1.59,4.73,3.62,5.78,4.98.79-.17,1.66-.31,2.59-.4,1.81-.18,3.42-.14,4.78,0-.01-.66-.12-1.67-.6-2.79-.75-1.76-1.99-2.76-2.59-3.19,1.28.75,2.84,1.83,4.38,3.39.89.89,1.61,1.78,2.19,2.59-.06-.6-.08-1.75.6-2.79,1.08-1.66,3.18-1.9,3.99-1.99.65-.08,1.2-.05,1.59,0-.15.04-2.8.75-3.39,2.99-.18.7-.11,1.34,0,1.79,1.34-.2,3.04-.33,4.98-.2,2.17.14,3.99.57,5.38,1,1.68-1.33,3.93-2.86,6.78-4.19.91-.43,1.8-.79,2.65-1.1l.2.55c-4.63,1.73-6.49,6.34-6.64,6.74,2.13,4.45,4.25,8.9,6.38,13.35,1.36,0,3.87-.23,6.38-1.79,2.16-1.35,3.42-3.13,4.25-4.71ZM80.15,49.66c.17-.54.7-2.47-.2-4.58-1.21-2.84-4.01-3.68-4.38-3.79-.53,1.79-1.06,3.59-1.59,5.38.57.57,1.49,1.36,2.79,1.99,1.35.66,2.57.9,3.39,1ZM56.22,45.87c-.53-1.79-1.06-3.59-1.59-5.38-.38.11-3.17.94-4.38,3.79-.9,2.12-.37,4.04-.2,4.58.82-.1,2.04-.33,3.39-1,1.3-.64,2.22-1.42,2.79-1.99ZM45.06,41.44c2.12-4.45,4.25-8.9,6.38-13.35-.17-.43-2.41-6-8.17-7.18-.82-.17-4.96-.88-8.17,1.79-.53.44-2,1.68-2.59,3.79-.67,2.37.16,4.37,1,6.38.77,1.85,1.99,4.79,5.18,6.78,2.51,1.56,5.02,1.79,6.38,1.79Z"/>
      <path class="st0" d="M94.19,59.97c.39.96.61,1.99.61,3.06,0,5.5-5.67,9.97-12.66,9.97-1.22,0-2.4-.14-3.52-.39,4.75-1.67,7.77-6.28,7.4-10.92-.29-3.59-2.58-6.81-5.91-8.49.66-.08,1.33-.13,2.02-.13,5.64,0,10.41,2.9,12.05,6.91Z"/>
      <path class="st0" d="M69.41,69.58v2.19c-.05.06-.53.6-1.4.64-.99.04-1.56-.6-1.59-.64v-3.23l2.99,1.04Z"/>
      <path class="st0" d="M68.88,59.04v2.79c-.05.11-.57,1.15-1.79,1.4-1.22.24-2.1-.51-2.19-.6-.03.04-.84.98-1.99.8-.93-.15-1.69-.96-1.79-1.99v-2.39c.29.28,1.64,1.55,3.79,1.59,2.27.04,3.73-1.34,3.99-1.59Z"/>
      <path class="st0" d="M63.63,68.44v3.34s-.6.68-1.59.64c-.87-.04-1.34-.58-1.4-.64v-2.34c1-.33,1.99-.67,2.99-1Z"/>
      <path class="st0" d="M48.05,53.06c.59,0,1.17.03,1.74.09-3.36,1.67-5.68,4.92-5.97,8.53-.37,4.68,2.71,9.34,7.54,10.96-1.05.23-2.16.35-3.31.35-6.99,0-12.66-4.46-12.66-9.97,0-1.08.22-2.11.62-3.08,1.65-4,6.41-6.88,12.04-6.88Z"/>
    </g>
    <path class="st1" d="M50.85,72.43c2.75,1.29,8.34,3.45,15.64,3.13,5.69-.25,10.09-1.92,12.67-3.13"/>
    <path class="st0" d="M74.7,61.87c7.37-6.26,16.4-10.26,25.98-11.57.95-.13.55-1.58-.4-1.45-9.84,1.35-19.08,5.53-26.64,11.95-.74.63.33,1.68,1.06,1.06h0Z"/>
    <path class="st0" d="M74.51,63.89c9.33-2.54,19.18-2.37,28.42.51.92.29,1.32-1.16.4-1.45-9.48-2.95-19.64-3.12-29.21-.51-.93.25-.54,1.7.4,1.45h0Z"/>
    <path class="st0" d="M74.77,65.93c9.67-.28,19.21,2.19,27.51,7.16.83.5,1.59-.8.76-1.3-8.51-5.09-18.35-7.66-28.27-7.37-.96.03-.97,1.53,0,1.5h0Z"/>
    <path class="st0" d="M55.02,60.8c-7.56-6.43-16.8-10.61-26.64-11.95-.94-.13-1.35,1.32-.4,1.45,9.58,1.31,18.61,5.31,25.98,11.57.73.62,1.8-.43,1.06-1.06h0Z"/>
    <path class="st0" d="M54.55,62.77c-9.51-2.82-19.68-2.88-29.22-.13-.93.27-.53,1.71.4,1.45,9.29-2.67,19.15-2.62,28.42.13.93.28,1.32-1.17.4-1.45h0Z"/>
    <path class="st0" d="M53.88,64.43c-9.92-.29-19.75,2.27-28.27,7.37-.83.5-.07,1.79.76,1.3,8.3-4.97,17.84-7.44,27.51-7.16.97.03.96-1.47,0-1.5h0Z"/>
  </g>
  <g>
    <path class="st0" d="M1430.97,176.01c-.66,1.06-1.35,1.85-2.08,2.38-.73.53-1.66.79-2.8.79-1.01,0-2.1-.32-3.27-.96-1.17-.64-2.49-1.35-3.96-2.14-1.47-.79-3.16-1.51-5.05-2.14s-4.05-.96-6.47-.96c-4.18,0-7.29.89-9.34,2.67s-3.07,4.19-3.07,7.23c0,1.94.62,3.54,1.85,4.82,1.23,1.28,2.85,2.38,4.85,3.3,2,.92,4.29,1.77,6.86,2.54,2.57.77,5.2,1.63,7.89,2.57,2.68.95,5.31,2.06,7.89,3.33,2.57,1.28,4.86,2.9,6.86,4.88,2,1.98,3.62,4.39,4.85,7.23,1.23,2.84,1.85,6.26,1.85,10.26,0,4.44-.77,8.6-2.31,12.47-1.54,3.87-3.77,7.25-6.7,10.13-2.93,2.88-6.53,5.15-10.82,6.8-4.29,1.65-9.16,2.48-14.62,2.48-2.99,0-6.04-.31-9.14-.92-3.1-.62-6.11-1.48-9.01-2.61-2.9-1.12-5.63-2.45-8.18-3.99-2.55-1.54-4.77-3.26-6.67-5.15l6.6-10.43c.48-.79,1.17-1.43,2.05-1.91.88-.48,1.83-.73,2.84-.73,1.32,0,2.65.42,3.99,1.25,1.34.84,2.86,1.76,4.55,2.77,1.69,1.01,3.64,1.94,5.84,2.77,2.2.84,4.8,1.25,7.79,1.25,4.05,0,7.19-.89,9.44-2.67,2.24-1.78,3.37-4.61,3.37-8.48,0-2.24-.62-4.07-1.85-5.48-1.23-1.41-2.85-2.57-4.85-3.5-2-.92-4.28-1.74-6.83-2.44-2.55-.7-5.17-1.48-7.85-2.34-2.68-.86-5.3-1.91-7.85-3.17-2.55-1.25-4.83-2.9-6.83-4.95-2-2.04-3.62-4.6-4.85-7.66-1.23-3.06-1.85-6.83-1.85-11.32,0-3.61.73-7.13,2.18-10.56,1.45-3.43,3.59-6.49,6.4-9.17,2.82-2.68,6.27-4.83,10.36-6.43,4.09-1.61,8.78-2.41,14.06-2.41,2.95,0,5.82.23,8.61.69,2.79.46,5.44,1.14,7.95,2.05,2.51.9,4.85,1.98,7.03,3.23s4.12,2.67,5.84,4.26l-5.54,10.36Z"/>
    <path class="st0" d="M1543.83,204.53c0,4.14-.43,8.11-1.29,11.91-.86,3.81-2.09,7.38-3.7,10.72-1.61,3.34-3.59,6.45-5.94,9.31-2.35,2.86-5.03,5.39-8.02,7.59l24.35,26.6h-18.35c-2.64,0-5.04-.32-7.19-.96-2.16-.64-4.07-1.93-5.74-3.86l-11.95-13.4c-1.94.4-3.91.7-5.91.92-2,.22-4.06.33-6.17.33-7.48,0-14.3-1.25-20.46-3.76s-11.43-5.97-15.81-10.39c-4.38-4.42-7.77-9.62-10.16-15.61-2.4-5.98-3.6-12.45-3.6-19.4s1.2-13.42,3.6-19.4c2.4-5.98,5.79-11.18,10.16-15.58,4.38-4.4,9.65-7.85,15.81-10.36s12.98-3.76,20.46-3.76,14.29,1.27,20.43,3.79c6.14,2.53,11.38,6,15.74,10.4,4.36,4.4,7.73,9.59,10.13,15.58,2.4,5.98,3.6,12.43,3.6,19.34ZM1521,204.53c0-4.75-.62-9.03-1.85-12.84-1.23-3.81-3-7.03-5.31-9.67-2.31-2.64-5.14-4.66-8.48-6.07-3.34-1.41-7.15-2.11-11.42-2.11s-8.15.71-11.52,2.11c-3.37,1.41-6.2,3.43-8.51,6.07-2.31,2.64-4.08,5.86-5.31,9.67-1.23,3.81-1.85,8.08-1.85,12.84s.62,9.1,1.85,12.9c1.23,3.81,3,7.03,5.31,9.67,2.31,2.64,5.15,4.65,8.51,6.04,3.37,1.39,7.2,2.08,11.52,2.08s8.07-.69,11.42-2.08c3.34-1.39,6.17-3.4,8.48-6.04,2.31-2.64,4.08-5.86,5.31-9.67s1.85-8.11,1.85-12.9Z"/>
    <path class="st0" d="M1594.52,235.02c2.99,0,5.67-.49,8.02-1.48s4.34-2.41,5.97-4.26c1.63-1.85,2.87-4.1,3.73-6.76.86-2.66,1.29-5.69,1.29-9.08v-56.96h22.31v56.96c0,5.9-.96,11.31-2.87,16.24-1.91,4.93-4.65,9.17-8.22,12.74-3.56,3.56-7.9,6.34-13,8.32-5.1,1.98-10.85,2.97-17.23,2.97s-12.19-.99-17.29-2.97c-5.1-1.98-9.44-4.75-13-8.32-3.56-3.56-6.29-7.81-8.18-12.74-1.89-4.93-2.84-10.34-2.84-16.24v-56.96h22.31v56.89c0,3.39.43,6.41,1.29,9.08.86,2.66,2.1,4.93,3.73,6.8s3.62,3.3,5.97,4.29c2.35.99,5.03,1.48,8.02,1.48Z"/>
    <path class="st0" d="M1712.26,156.48v17.16h-39.47v22.44h30.23v16.5h-30.23v22.9h39.47v17.16h-61.91v-96.16h61.91Z"/>
    <path class="st0" d="M1814.43,252.64h-17.29c-1.94,0-3.53-.45-4.79-1.35-1.25-.9-2.12-2.06-2.61-3.46l-5.68-16.76h-36.56l-5.68,16.76c-.44,1.23-1.3,2.34-2.57,3.33-1.28.99-2.84,1.49-4.69,1.49h-17.42l37.22-96.16h22.84l37.22,96.16ZM1752.65,215.88h26.27l-8.84-26.33c-.57-1.67-1.24-3.64-2.01-5.91-.77-2.27-1.53-4.72-2.28-7.36-.71,2.68-1.43,5.17-2.18,7.46-.75,2.29-1.45,4.27-2.11,5.94l-8.84,26.2Z"/>
    <path class="st0" d="M1844.52,195.42h3.56c3.3,0,5.68-1.03,7.13-3.1l21.65-31.42c1.19-1.72,2.54-2.88,4.06-3.5,1.52-.62,3.38-.92,5.58-.92h19.4l-28.51,38.87c-1.01,1.41-2.07,2.57-3.17,3.5s-2.22,1.7-3.37,2.31c1.67.62,3.2,1.46,4.59,2.54,1.39,1.08,2.65,2.52,3.79,4.32l29.04,44.62h-19.93c-1.28,0-2.37-.09-3.27-.26-.9-.17-1.68-.44-2.34-.79-.66-.35-1.23-.78-1.72-1.29-.48-.5-.95-1.09-1.39-1.75l-21.78-33.46c-.79-1.23-1.79-2.1-3-2.61-1.21-.5-2.85-.76-4.92-.76h-5.41v40.92h-22.31v-96.16h22.31v38.94Z"/>
  </g>
  <g>
    <g>
      <path class="st0" d="M1808.38-136.92c-.15-.72-.32-1.44-.53-2.17-2.99-10.59-10.33-16.78-13-19-16.11-13.44-36.87-9.84-41-9-2.71.55-5.26,1.3-7.67,2.2l-1.02-2.74c6.04-2.24,11.7-3.93,16.83-5.24,1.43-.15,2.89-.22,4.36-.22,21.33,0,38.98,15.69,42.03,36.17Z"/>
      <path class="st0" d="M1798.15-96.73c-.1.22-.2.43-.3.64-7.88,16.63-13.41,27.91-26,35-9.17,5.16-18.34,5.99-24,6,7.47,6.08,19.72,17.68,29,36,9.43,18.59,11.52,35.66,11.95,45.67-8.21-20.12-32.17-34.67-60.45-34.67-3.45,0-6.83.22-10.13.64-3.18.39-6.27.98-9.27,1.74l-.1-.38c-8.93-7.24-25.92-23-37-49-10.06-23.64-10.54-44.71-10-56-1.53-1.46-7.19-6.49-16-7-10.67-.63-17.78,5.85-19,7-1.97,16.83-7.63,44.63-26,73-8.78,13.56-18.36,24-26.75,31.76-2.61-.56-5.28-1-8.01-1.29h0c-2.86-.31-5.77-.47-8.73-.47-28.22,0-52.14,14.49-60.4,34.54l-.1-.04c.31-10.08,2.15-28.39,12-48.42,9.29-18.87,21.54-30.82,29-37.08-5.66,0-14.83-.84-24-6-12.59-7.09-18.12-18.37-26-35-1.62-3.44-3.41-7.5-5.21-12.14-.37-.96-.74-1.95-1.12-2.96,0-.01,0-.03-.02-.05-1.4-3.82-2.8-8-4.1-12.53-.36-2.22-.55-4.5-.55-6.82,0-23.48,19.03-42.5,42.5-42.5,2.01,0,3.98.13,5.91.4l1.81-.09c6.17,1.59,13.75,4.23,21.78,8.69,14.43,7.99,23.73,18.16,29,25,3.96-.83,8.31-1.54,13-2,9.06-.9,17.17-.68,24,0-.06-3.31-.6-8.39-3-14-3.76-8.81-9.97-13.86-13-16,6.43,3.75,14.25,9.19,22,17,4.47,4.49,8.09,8.94,11,13-.32-3.03-.41-8.78,3-14,5.43-8.31,15.95-9.53,20-10,3.27-.38,6.04-.23,8,0-.77.19-14.05,3.74-17,15-.92,3.52-.54,6.72,0,9,6.74-1,15.24-1.65,25-1,10.87.72,20.03,2.84,27,5,8.41-6.66,19.71-14.33,34-21,4.59-2.14,9.04-3.98,13.31-5.54l1.02,2.74c-23.25,8.69-32.57,31.82-33.33,33.8,10.67,22.33,21.34,44.66,32,67,6.83-.04,19.43-1.16,32-9,10.85-6.76,17.16-15.7,21.3-23.64ZM1718.38-25.16c.85-2.72,3.52-12.37-1-23-6.08-14.26-20.1-18.46-22-19-2.67,9-5.34,18-8,27,2.86,2.86,7.46,6.8,14,10,6.76,3.32,12.91,4.52,17,5ZM1598.33-44.16c-2.66-9-5.33-18-8-27-1.9.54-15.92,4.74-22,19-4.52,10.63-1.85,20.28-1,23,4.09-.48,10.24-1.68,17-5,6.53-3.2,11.14-7.14,14-10ZM1542.33-66.39c10.66-22.33,21.33-44.66,32-67-.84-2.17-12.1-30.11-41-36-4.13-.84-24.89-4.43-41,9-2.67,2.23-10.01,8.42-13,19-3.36,11.87.8,21.91,5,32,3.84,9.27,9.97,24.01,26,34,12.57,7.84,25.17,8.96,32,9Z"/>
      <path class="st0" d="M1788.8,26.58c1.98,4.83,3.05,9.98,3.05,15.33,0,27.61-28.43,50-63.5,50-6.12,0-12.04-.68-17.64-1.96,23.82-8.37,39-31.53,37.14-54.79-1.44-18.01-12.94-34.19-29.63-42.61,3.3-.42,6.68-.64,10.13-.64,28.28,0,52.24,14.55,60.45,34.67Z"/>
      <path class="st0" d="M1664.5,74.79v10.99c-.27.32-2.64,3.02-7,3.21-4.97.22-7.85-3.03-8-3.21v-16.21c5,1.74,10,3.48,15,5.22Z"/>
      <path class="st0" d="M1661.85,21.91v14c-.27.57-2.87,5.77-9,7-6.12,1.22-10.52-2.58-11-3-.17.21-4.19,4.92-10,4-4.68-.75-8.46-4.84-9-10v-12c1.44,1.4,8.25,7.8,19,8,11.39.2,18.69-6.71,20-8Z"/>
      <path class="st0" d="M1635.5,69.03v16.75c-.15.18-3.03,3.43-8,3.21-4.36-.19-6.73-2.89-7-3.21v-11.75c5-1.67,10-3.34,15-5Z"/>
      <path class="st0" d="M1557.35-8.09c2.96,0,5.87.16,8.73.47-16.85,8.39-28.49,24.66-29.94,42.78-1.87,23.48,13.6,46.86,37.82,55.01-5.29,1.14-10.86,1.74-16.61,1.74-35.07,0-63.5-22.39-63.5-50,0-5.4,1.09-10.59,3.1-15.46,8.26-20.05,32.18-34.54,60.4-34.54Z"/>
    </g>
    <path class="st1" d="M1571.36,89.05c13.8,6.45,41.87,17.32,78.44,15.69,28.55-1.27,50.62-9.62,63.56-15.69"/>
    <path class="st0" d="M1689.42,34.47c12.68-10.83,26.42-20.4,40.97-28.56,18.83-10.55,39-18.66,59.89-24.09,9.9-2.57,19.95-4.56,30.08-5.92.81-.11,1.49-.61,1.5-1.5,0-.73-.7-1.61-1.5-1.5-19.89,2.67-39.44,7.58-58.18,14.79s-37.25,16.94-54.04,28.58c-7.21,5-14.17,10.37-20.84,16.07-1.47,1.26.66,3.37,2.12,2.12h0Z"/>
    <path class="st0" d="M1689.48,44.07c16.53-4.55,33.5-7.46,50.61-8.61,21.55-1.45,43.28-.14,64.5,3.93,9.68,1.86,19.25,4.29,28.66,7.25,1.85.58,2.64-2.31.8-2.89-18.46-5.81-37.56-9.53-56.86-11.06-20.84-1.66-41.85-.7-62.46,2.74-8.77,1.46-17.47,3.39-26.04,5.75-1.86.51-1.07,3.41.8,2.89h0Z"/>
    <path class="st0" d="M1691.4,54.19c17.33-.54,34.71.63,51.8,3.6,21.23,3.69,41.99,10.09,61.59,19.04,8.84,4.04,17.44,8.58,25.77,13.59,1.66,1,3.17-1.59,1.51-2.59-16.27-9.79-33.62-17.79-51.64-23.77-20.02-6.65-40.86-10.76-61.89-12.31-9.03-.67-18.09-.85-27.14-.56-1.93.06-1.93,3.06,0,3h0Z"/>
    <path class="st0" d="M1590.7,32.34c-12.88-10.99-26.8-20.75-41.57-29.03-19.11-10.71-39.61-18.95-60.81-24.44-10.09-2.61-20.34-4.58-30.67-5.97-.81-.11-1.49.77-1.5,1.5,0,.9.7,1.39,1.5,1.5,19.61,2.63,38.92,7.58,57.38,14.68,18.77,7.22,36.65,16.73,53.17,28.18,7.06,4.89,13.85,10.13,20.38,15.7,1.46,1.25,3.59-.87,2.12-2.12h0Z"/>
    <path class="st0" d="M1589.32,41.17c-16.72-4.6-33.89-7.53-51.19-8.7-21.76-1.48-43.68-.13-65.1,3.95-9.82,1.87-19.53,4.32-29.07,7.32-1.84.58-1.05,3.47.8,2.89,18.28-5.75,37.19-9.47,56.3-10.97,20.6-1.62,41.41-.72,61.79,2.72,8.65,1.46,17.22,3.36,25.67,5.69,1.86.51,2.66-2.38.8-2.89h0Z"/>
    <path class="st0" d="M1586.6,51.19c-17.6-.55-35.24.69-52.6,3.71-21.36,3.72-42.2,10.2-61.94,19.17-8.97,4.08-17.7,8.68-26.14,13.76-1.65.99-.15,3.59,1.51,2.59,16.05-9.66,33.14-17.57,50.92-23.47,19.88-6.6,40.58-10.72,61.47-12.23,8.9-.64,17.84-.81,26.76-.53,1.93.06,1.93-2.94,0-3h0Z"/>
  </g>
</svg>